<?xml version="1.0" encoding="UTF-8" standalone="no"?>
<!DOCTYPE svg PUBLIC "-//W3C//DTD SVG 1.1//EN"
 "http://www.w3.org/Graphics/SVG/1.1/DTD/svg11.dtd">
<!-- Generated by graphviz version 8.0.5 (20230430.1635)
 -->
<!-- Title: example Pages: 1 -->
<svg width="198pt" height="476pt"
 viewBox="0.00 0.00 198.00 476.00" xmlns="http://www.w3.org/2000/svg" xmlns:xlink="http://www.w3.org/1999/xlink">
<g id="graph0" class="graph" transform="scale(1 1) rotate(0) translate(4 472)">
<title>example</title>
<polygon fill="white" stroke="none" points="-4,4 -4,-472 194,-472 194,4 -4,4"/>
<!-- 1 -->
<g id="node1" class="node">
<title>1</title>
<ellipse fill="none" stroke="black" cx="95" cy="-450" rx="27" ry="18"/>
<text text-anchor="middle" x="95" y="-444.57" font-family="Times New Roman,serif" font-size="14.00">1</text>
</g>
<!-- 2 -->
<g id="node2" class="node">
<title>2</title>
<ellipse fill="none" stroke="black" cx="59" cy="-378" rx="27" ry="18"/>
<text text-anchor="middle" x="59" y="-372.57" font-family="Times New Roman,serif" font-size="14.00">2</text>
</g>
<!-- 1&#45;&gt;2 -->
<g id="edge1" class="edge">
<title>1&#45;&gt;2</title>
<path fill="none" stroke="black" d="M86.65,-432.76C82.38,-424.46 77.08,-414.15 72.27,-404.79"/>
<polygon fill="black" stroke="black" points="74.99,-403.44 67.3,-396.15 68.77,-406.64 74.99,-403.44"/>
</g>
<!-- 5 -->
<g id="node5" class="node">
<title>5</title>
<ellipse fill="none" stroke="black" cx="163" cy="-378" rx="27" ry="18"/>
<text text-anchor="middle" x="163" y="-372.57" font-family="Times New Roman,serif" font-size="14.00">5</text>
</g>
<!-- 1&#45;&gt;5 -->
<g id="edge6" class="edge">
<title>1&#45;&gt;5</title>
<path fill="none" stroke="black" d="M109.09,-434.5C118.39,-424.92 130.76,-412.19 141.3,-401.34"/>
<polygon fill="black" stroke="black" points="143.47,-404.1 147.93,-394.49 138.45,-399.22 143.47,-404.1"/>
</g>
<!-- 3 -->
<g id="node3" class="node">
<title>3</title>
<ellipse fill="none" stroke="black" cx="91" cy="-306" rx="27" ry="18"/>
<text text-anchor="middle" x="91" y="-300.57" font-family="Times New Roman,serif" font-size="14.00">3</text>
</g>
<!-- 2&#45;&gt;3 -->
<g id="edge3" class="edge">
<title>2&#45;&gt;3</title>
<path fill="none" stroke="black" d="M66.58,-360.41C70.29,-352.3 74.84,-342.35 79,-333.25"/>
<polygon fill="black" stroke="black" points="82.5,-335.02 83.47,-324.47 76.13,-332.11 82.5,-335.02"/>
</g>
<!-- 4 -->
<g id="node4" class="node">
<title>4</title>
<ellipse fill="none" stroke="black" cx="27" cy="-234" rx="27" ry="18"/>
<text text-anchor="middle" x="27" y="-228.57" font-family="Times New Roman,serif" font-size="14.00">4</text>
</g>
<!-- 2&#45;&gt;4 -->
<g id="edge4" class="edge">
<title>2&#45;&gt;4</title>
<path fill="none" stroke="black" d="M50.74,-360.43C42.76,-336.54 32.42,-292.08 27.81,-263.02"/>
<polygon fill="black" stroke="black" points="31.17,-262.76 26.3,-253.35 24.24,-263.74 31.17,-262.76"/>
</g>
<!-- 3&#45;&gt;4 -->
<g id="edge5" class="edge">
<title>3&#45;&gt;4</title>
<path fill="none" stroke="black" d="M77.43,-290.15C68.86,-280.78 57.61,-268.48 47.92,-257.88"/>
<polygon fill="black" stroke="black" points="50.88,-255.84 41.55,-250.82 45.72,-260.57 50.88,-255.84"/>
</g>
<!-- 10 -->
<g id="node10" class="node">
<title>10</title>
<ellipse fill="none" stroke="black" cx="99" cy="-234" rx="27" ry="18"/>
<text text-anchor="middle" x="99" y="-228.57" font-family="Times New Roman,serif" font-size="14.00">10</text>
</g>
<!-- 3&#45;&gt;10 -->
<g id="edge15" class="edge">
<title>3&#45;&gt;10</title>
<path fill="none" stroke="black" d="M92.98,-287.7C93.83,-280.24 94.85,-271.32 95.8,-262.97"/>
<polygon fill="black" stroke="black" points="99.39,-263.44 97.05,-253.1 92.43,-262.64 99.39,-263.44"/>
</g>
<!-- 4&#45;&gt;2 -->
<g id="edge2" class="edge">
<title>4&#45;&gt;2</title>
<path fill="none" stroke="black" d="M35.15,-251.24C43.13,-275.02 53.53,-319.67 58.17,-348.86"/>
<polygon fill="black" stroke="black" points="54.82,-349.18 59.69,-358.59 61.75,-348.2 54.82,-349.18"/>
</g>
<!-- 7 -->
<g id="node7" class="node">
<title>7</title>
<ellipse fill="none" stroke="black" cx="90" cy="-162" rx="27" ry="18"/>
<text text-anchor="middle" x="90" y="-156.57" font-family="Times New Roman,serif" font-size="14.00">7</text>
</g>
<!-- 4&#45;&gt;7 -->
<g id="edge9" class="edge">
<title>4&#45;&gt;7</title>
<path fill="none" stroke="black" d="M40.36,-218.15C48.8,-208.78 59.87,-196.48 69.41,-185.88"/>
<polygon fill="black" stroke="black" points="71.57,-188.6 75.66,-178.82 66.37,-183.92 71.57,-188.6"/>
</g>
<!-- 6 -->
<g id="node6" class="node">
<title>6</title>
<ellipse fill="none" stroke="black" cx="163" cy="-306" rx="27" ry="18"/>
<text text-anchor="middle" x="163" y="-300.57" font-family="Times New Roman,serif" font-size="14.00">6</text>
</g>
<!-- 5&#45;&gt;6 -->
<g id="edge8" class="edge">
<title>5&#45;&gt;6</title>
<path fill="none" stroke="black" d="M157.12,-360.05C156.31,-352.4 156.06,-343.16 156.39,-334.56"/>
<polygon fill="black" stroke="black" points="159.93,-335.01 157.14,-324.79 152.95,-334.52 159.93,-335.01"/>
</g>
<!-- 6&#45;&gt;5 -->
<g id="edge7" class="edge">
<title>6&#45;&gt;5</title>
<path fill="none" stroke="black" d="M168.86,-323.79C169.68,-331.42 169.93,-340.65 169.62,-349.27"/>
<polygon fill="black" stroke="black" points="166.07,-348.84 168.88,-359.05 173.06,-349.32 166.07,-348.84"/>
</g>
<!-- 6&#45;&gt;7 -->
<g id="edge10" class="edge">
<title>6&#45;&gt;7</title>
<path fill="none" stroke="black" d="M159.72,-287.79C155.72,-269.24 147.84,-239.26 135,-216 128.9,-204.95 120.27,-194.08 112.2,-185.09"/>
<polygon fill="black" stroke="black" points="115.12,-183.02 105.74,-178.11 110.01,-187.8 115.12,-183.02"/>
</g>
<!-- 8 -->
<g id="node8" class="node">
<title>8</title>
<ellipse fill="none" stroke="black" cx="63" cy="-90" rx="27" ry="18"/>
<text text-anchor="middle" x="63" y="-84.58" font-family="Times New Roman,serif" font-size="14.00">8</text>
</g>
<!-- 7&#45;&gt;8 -->
<g id="edge12" class="edge">
<title>7&#45;&gt;8</title>
<path fill="none" stroke="black" d="M83.46,-144.05C80.45,-136.23 76.79,-126.75 73.41,-117.98"/>
<polygon fill="black" stroke="black" points="76.34,-116.86 69.48,-108.79 69.81,-119.38 76.34,-116.86"/>
</g>
<!-- 9 -->
<g id="node9" class="node">
<title>9</title>
<ellipse fill="none" stroke="black" cx="63" cy="-18" rx="27" ry="18"/>
<text text-anchor="middle" x="63" y="-12.57" font-family="Times New Roman,serif" font-size="14.00">9</text>
</g>
<!-- 8&#45;&gt;9 -->
<g id="edge14" class="edge">
<title>8&#45;&gt;9</title>
<path fill="none" stroke="black" d="M57.12,-72.05C56.31,-64.4 56.06,-55.16 56.39,-46.56"/>
<polygon fill="black" stroke="black" points="59.93,-47.01 57.14,-36.79 52.95,-46.52 59.93,-47.01"/>
</g>
<!-- 9&#45;&gt;7 -->
<g id="edge11" class="edge">
<title>9&#45;&gt;7</title>
<path fill="none" stroke="black" d="M76.75,-33.93C84.96,-43.9 94.62,-57.75 99,-72 105.17,-92.07 102.32,-115.75 98.25,-133.65"/>
<polygon fill="black" stroke="black" points="94.63,-132.66 95.55,-143.21 101.41,-134.39 94.63,-132.66"/>
</g>
<!-- 9&#45;&gt;8 -->
<g id="edge13" class="edge">
<title>9&#45;&gt;8</title>
<path fill="none" stroke="black" d="M68.86,-35.79C69.68,-43.42 69.93,-52.65 69.62,-61.27"/>
<polygon fill="black" stroke="black" points="66.07,-60.84 68.88,-71.05 73.06,-61.32 66.07,-60.84"/>
</g>
</g>
</svg>
